<svg width="54" height="54" viewBox="0 0 54 54" fill="none" xmlns="http://www.w3.org/2000/svg">
<rect width="54" height="54" rx="27" fill="url(#paint0_linear_107_242)"/>
<path d="M27 40.3332C34.3638 40.3332 40.3333 34.3636 40.3333 26.9998C40.3333 19.636 34.3638 13.6665 27 13.6665C19.6362 13.6665 13.6666 19.636 13.6666 26.9998C13.6666 34.3636 19.6362 40.3332 27 40.3332Z" stroke="white" stroke-width="2" stroke-linecap="round" stroke-linejoin="round"/>
<path d="M13.6666 27H40.3333" stroke="white" stroke-width="2" stroke-linecap="round" stroke-linejoin="round"/>
<path d="M27 13.6665C30.335 17.3176 32.2303 22.0559 32.3333 26.9998C32.2303 31.9438 30.335 36.682 27 40.3332C23.6649 36.682 21.7696 31.9438 21.6666 26.9998C21.7696 22.0559 23.6649 17.3176 27 13.6665V13.6665Z" stroke="white" stroke-width="2" stroke-linecap="round" stroke-linejoin="round"/>
<defs>
<linearGradient id="paint0_linear_107_242" x1="47" y1="3.53765e-07" x2="8.5" y2="54" gradientUnits="userSpaceOnUse">
<stop stop-color="#FFB75E"/>
<stop offset="1" stop-color="#ED8F03"/>
</linearGradient>
</defs>
</svg>
